<svg width="80" height="79" viewBox="0 0 80 79" fill="none" xmlns="http://www.w3.org/2000/svg">
<path fill-rule="evenodd" clip-rule="evenodd" d="M32.2241 78.8901C36.2373 79.2334 37.811 76.5735 40.0645 72.7646C42.1709 69.2041 44.8711 64.6399 50.7129 60.5862C56.9087 56.2869 62.8672 56.3037 67.7314 56.3176C72.396 56.3308 76.0547 56.3411 77.9541 52.5417C79.2222 48.6699 79.9077 44.5347 79.9077 40.239C79.9077 18.4238 62.2231 0.739014 40.4077 0.739014C38.7632 0.739014 37.1421 0.835938 35.5503 1.03101C34.769 1.12915 33.9932 1.25073 33.2231 1.39478C28.8418 2.21436 24.6523 3.76733 20.8271 5.95532C11.9902 11.0098 5.09424 19.4517 2.25146 30.062C1.72754 32.0173 1.35986 33.9775 1.14014 35.9297C0.986816 37.345 0.907715 38.783 0.907715 40.239C0.907715 59.2485 14.3359 75.1216 32.2241 78.8901Z" fill="#817FF5"/>
</svg>